<svg width="23" height="22" viewBox="0 0 23 22" fill="none" xmlns="http://www.w3.org/2000/svg">
<g filter="url(#filter0_d_1402_349)">
<mask id="path-1-inside-1_1402_349" fill="white">
<path fill-rule="evenodd" clip-rule="evenodd" d="M4.5 0C4.22386 0 4 0.223858 4 0.5V10.5C4 10.7761 4.22386 11 4.5 11H12.4999L16.2225 13.4818C16.5547 13.7033 16.9998 13.4651 16.9998 13.0658L16.9999 11H18.5C18.7761 11 19 10.7761 19 10.5V0.5C19 0.223858 18.7761 0 18.5 0H4.5Z"/>
</mask>
<path d="M12.4999 11L13.0547 10.168L12.8027 10H12.4999V11ZM16.2225 13.4818L15.6677 14.3138L15.6677 14.3138L16.2225 13.4818ZM16.9998 13.0658L17.9998 13.0658V13.0658L16.9998 13.0658ZM16.9999 11V10H16L15.9999 10.9999L16.9999 11ZM5 0.5C5 0.776142 4.77614 1 4.5 1V-1C3.67157 -1 3 -0.328427 3 0.5H5ZM5 10.5V0.5H3V10.5H5ZM4.5 10C4.77614 10 5 10.2239 5 10.5H3C3 11.3284 3.67157 12 4.5 12V10ZM12.4999 10H4.5V12H12.4999V10ZM16.7772 12.6497L13.0547 10.168L11.9452 11.832L15.6677 14.3138L16.7772 12.6497ZM15.9998 13.0657C15.9998 12.6664 16.4449 12.4282 16.7772 12.6497L15.6677 14.3138C16.6645 14.9784 17.9997 14.2639 17.9998 13.0658L15.9998 13.0657ZM15.9999 10.9999L15.9998 13.0657L17.9998 13.0658L17.9999 11.0001L15.9999 10.9999ZM18.5 10H16.9999V12H18.5V10ZM18 10.5C18 10.2239 18.2239 10 18.5 10V12C19.3284 12 20 11.3284 20 10.5H18ZM18 0.5V10.5H20V0.5H18ZM18.5 1C18.2239 1 18 0.776143 18 0.5H20C20 -0.328427 19.3284 -1 18.5 -1V1ZM4.5 1H18.5V-1H4.5V1Z" fill="#EEEEEE" mask="url(#path-1-inside-1_1402_349)"/>
</g>
<defs>
<filter id="filter0_d_1402_349" x="0" y="0" width="23" height="21.5667" filterUnits="userSpaceOnUse" color-interpolation-filters="sRGB">
<feFlood flood-opacity="0" result="BackgroundImageFix"/>
<feColorMatrix in="SourceAlpha" type="matrix" values="0 0 0 0 0 0 0 0 0 0 0 0 0 0 0 0 0 0 127 0" result="hardAlpha"/>
<feOffset dy="4"/>
<feGaussianBlur stdDeviation="2"/>
<feComposite in2="hardAlpha" operator="out"/>
<feColorMatrix type="matrix" values="0 0 0 0 0 0 0 0 0 0 0 0 0 0 0 0 0 0 0.25 0"/>
<feBlend mode="normal" in2="BackgroundImageFix" result="effect1_dropShadow_1402_349"/>
<feBlend mode="normal" in="SourceGraphic" in2="effect1_dropShadow_1402_349" result="shape"/>
</filter>
</defs>
</svg>
