<svg width="16" height="15" viewBox="0 0 16 15" fill="none" xmlns="http://www.w3.org/2000/svg">
<path d="M8.14914 2.2334L7.79439 2.58576L8.14914 2.94291L8.50388 2.58576L8.14914 2.2334ZM2.13617 2.31697L1.77197 1.97438L1.77197 1.97438L2.13617 2.31697ZM2.13617 8.04912L1.77197 8.3917H1.77197L2.13617 8.04912ZM7.8005 14.0708L8.16469 13.7282L7.8005 14.0708ZM8.14914 14.2101L8.17662 13.7109L8.14914 13.7094L8.12166 13.7109L8.14914 14.2101ZM8.49778 14.0708L8.86197 14.4134L8.86198 14.4133L8.49778 14.0708ZM14.1621 8.04912L13.7979 7.70653L14.1621 8.04912ZM14.1621 2.31697L13.7979 2.65955L14.1621 2.31697ZM8.50388 1.88104C6.64451 0.00904459 3.59141 0.0401673 1.77197 1.97438L2.50036 2.65955C3.93117 1.13848 6.33245 1.11389 7.79439 2.58576L8.50388 1.88104ZM1.77197 1.97438C0.0760092 3.77733 0.0760093 6.58875 1.77197 8.3917L2.50036 7.70653C1.16655 6.28858 1.16655 4.0775 2.50036 2.65955L1.77197 1.97438ZM1.77197 8.3917L7.4363 14.4133L8.16469 13.7282L2.50036 7.70653L1.77197 8.3917ZM7.4363 14.4133C7.63585 14.6255 7.90997 14.7241 8.17662 14.7094L8.12166 13.7109C8.1288 13.7105 8.13643 13.7116 8.14418 13.7146C8.15242 13.7178 8.15963 13.7228 8.16469 13.7282L7.4363 14.4133ZM8.13359 13.7282C8.13865 13.7228 8.14585 13.7178 8.1541 13.7146C8.16185 13.7116 8.16948 13.7105 8.17662 13.7109L8.12166 14.7094C8.38831 14.7241 8.66242 14.6255 8.86197 14.4134L8.13359 13.7282ZM13.7979 7.70653L8.13359 13.7282L8.86198 14.4133L14.5263 8.3917L13.7979 7.70653ZM13.7979 2.65955C15.1317 4.0775 15.1317 6.28858 13.7979 7.70653L14.5263 8.3917C16.2223 6.58875 16.2223 3.77733 14.5263 1.97439L13.7979 2.65955ZM8.50388 2.58576C9.96583 1.11389 12.3671 1.13848 13.7979 2.65955L14.5263 1.97439C12.7069 0.0401675 9.65377 0.00904596 7.79439 1.88104L8.50388 2.58576Z" fill="white"/>
</svg>
