<svg width="27" height="24" viewBox="0 0 27 24" fill="none" xmlns="http://www.w3.org/2000/svg">
<path fill-rule="evenodd" clip-rule="evenodd" d="M20.8861 2.19604C20.3502 1.26784 19.3598 0.696045 18.288 0.696045H8.5978C7.52601 0.696045 6.53562 1.26784 5.99973 2.19605L1.15461 10.588C0.618711 11.5162 0.618711 12.6598 1.15461 13.588L5.99973 21.98C6.53562 22.9082 7.52601 23.48 8.5978 23.48H18.288C19.3598 23.48 20.3502 22.9082 20.8861 21.98L25.7312 13.588C26.2671 12.6598 26.2671 11.5162 25.7312 10.588L20.8861 2.19604ZM13.594 16.7697C16.096 16.7697 18.1242 14.7415 18.1242 12.2395C18.1242 9.73753 16.096 7.70928 13.594 7.70928C11.092 7.70928 9.06376 9.73753 9.06376 12.2395C9.06376 14.7415 11.092 16.7697 13.594 16.7697Z" fill="#524882"/>
</svg>
