<svg width="22" height="22" viewBox="0 0 22 22" fill="none" xmlns="http://www.w3.org/2000/svg">
<path fill-rule="evenodd" clip-rule="evenodd" d="M0 4C0 1.79086 1.79086 0 4 0H18C20.2091 0 22 1.79086 22 4V18C22 20.2091 20.2091 22 18 22H4C1.79086 22 0 20.2091 0 18V4ZM5.25 11C5.25 10.5858 5.58579 10.25 6 10.25H10.25V6C10.25 5.58579 10.5858 5.25 11 5.25C11.4142 5.25 11.75 5.58579 11.75 6V10.25H16C16.4142 10.25 16.75 10.5858 16.75 11C16.75 11.4142 16.4142 11.75 16 11.75H11.75V16C11.75 16.4142 11.4142 16.75 11 16.75C10.5858 16.75 10.25 16.4142 10.25 16V11.75H6C5.58579 11.75 5.25 11.4142 5.25 11Z" fill="#524882"/>
</svg>
