<svg width="17" height="21" viewBox="0 0 17 21" fill="none" xmlns="http://www.w3.org/2000/svg">
<mask id="path-1-inside-1_2259_1217" fill="white">
<path fill-rule="evenodd" clip-rule="evenodd" d="M17 8.0325C17 6.97766 16.7801 5.93314 16.353 4.95859C15.9258 3.98405 15.2997 3.09855 14.5104 2.35266C13.7211 1.60678 12.7841 1.01511 11.7528 0.611437C10.7215 0.207767 9.61624 0 8.5 0C7.38376 0 6.27846 0.207767 5.24719 0.611438C4.21592 1.01511 3.27889 1.60678 2.48959 2.35266C1.70029 3.09855 1.07419 3.98405 0.647024 4.9586C0.219859 5.93314 0 6.97766 0 8.0325C0 13.6994 4.4383 18.2798 6.90066 20.3849C7.83397 21.1828 9.16602 21.1828 10.0993 20.3849C12.5617 18.2798 17 13.6994 17 8.0325ZM8.5 11C9.88071 11 11 9.88071 11 8.5C11 7.11929 9.88071 6 8.5 6C7.11929 6 6 7.11929 6 8.5C6 9.88071 7.11929 11 8.5 11Z"/>
</mask>
<path d="M16.353 4.95859L17.7268 4.35642V4.35642L16.353 4.95859ZM14.5104 2.35266L13.4802 3.44288L14.5104 2.35266ZM11.7528 0.611437L11.2061 2.00824L11.7528 0.611437ZM2.48959 2.35266L1.45934 1.26245H1.45934L2.48959 2.35266ZM0.647024 4.9586L2.02084 5.56077H2.02085L0.647024 4.9586ZM6.90066 20.3849L5.92593 21.525H5.92593L6.90066 20.3849ZM10.0993 20.3849L11.0741 21.525H11.0741L10.0993 20.3849ZM14.9792 5.56077C15.3239 6.34718 15.5 7.1868 15.5 8.0325H18.5C18.5 6.76851 18.2364 5.51911 17.7268 4.35642L14.9792 5.56077ZM13.4802 3.44288C14.1265 4.05366 14.6344 4.77412 14.9792 5.56077L17.7268 4.35642C17.2173 3.19397 16.4729 2.14344 15.5407 1.26245L13.4802 3.44288ZM11.2061 2.00824C12.0616 2.34313 12.8336 2.83194 13.4802 3.44288L15.5407 1.26245C14.6086 0.38162 13.5066 -0.312911 12.2996 -0.785366L11.2061 2.00824ZM8.5 1.5C9.43066 1.5 10.3504 1.67332 11.2061 2.00824L12.2996 -0.785366C11.0927 -1.25778 9.80181 -1.5 8.5 -1.5V1.5ZM5.79394 2.00824C6.64958 1.67332 7.56934 1.5 8.5 1.5V-1.5C7.19819 -1.5 5.90733 -1.25778 4.70044 -0.785366L5.79394 2.00824ZM3.51985 3.44288C4.16635 2.83194 4.9384 2.34313 5.79394 2.00824L4.70044 -0.785366C3.49344 -0.31291 2.39143 0.38162 1.45934 1.26245L3.51985 3.44288ZM2.02085 5.56077C2.36565 4.77412 2.87352 4.05366 3.51985 3.44288L1.45934 1.26245C0.527067 2.14344 -0.217272 3.19397 -0.726798 4.35642L2.02085 5.56077ZM1.5 8.0325C1.5 7.1868 1.67615 6.34718 2.02084 5.56077L-0.726798 4.35642C-1.23643 5.51911 -1.5 6.76851 -1.5 8.0325H1.5ZM7.87538 19.2447C6.70479 18.244 5.08814 16.6732 3.7733 14.7097C2.45648 12.7433 1.5 10.4704 1.5 8.0325H-1.5C-1.5 11.2615 -0.23733 14.1122 1.28059 16.379C2.80049 18.6487 4.63417 20.4207 5.92593 21.525L7.87538 19.2447ZM9.12462 19.2447C8.75254 19.5628 8.24746 19.5628 7.87538 19.2447L5.92593 21.525C7.42049 22.8027 9.5795 22.8027 11.0741 21.525L9.12462 19.2447ZM15.5 8.0325C15.5 10.4704 14.5435 12.7433 13.2267 14.7097C11.9119 16.6732 10.2952 18.244 9.12462 19.2447L11.0741 21.525C12.3658 20.4207 14.1995 18.6487 15.7194 16.379C17.2373 14.1122 18.5 11.2614 18.5 8.0325H15.5ZM9.5 8.5C9.5 9.05228 9.05228 9.5 8.5 9.5V12.5C10.7091 12.5 12.5 10.7091 12.5 8.5H9.5ZM8.5 7.5C9.05228 7.5 9.5 7.94772 9.5 8.5H12.5C12.5 6.29086 10.7091 4.5 8.5 4.5V7.5ZM7.5 8.5C7.5 7.94772 7.94772 7.5 8.5 7.5V4.5C6.29086 4.5 4.5 6.29086 4.5 8.5H7.5ZM8.5 9.5C7.94772 9.5 7.5 9.05228 7.5 8.5H4.5C4.5 10.7091 6.29086 12.5 8.5 12.5V9.5Z" fill="#121212" mask="url(#path-1-inside-1_2259_1217)"/>
</svg>
