<svg width="16" height="20" viewBox="0 0 16 20" fill="none" xmlns="http://www.w3.org/2000/svg">
<path fill-rule="evenodd" clip-rule="evenodd" d="M0 1C0 0.447716 0.447715 0 1 0H15C15.5523 0 16 0.447715 16 1V18.5333C16 19.238 15.2907 19.7216 14.6347 19.4642L8.36531 17.0039C8.13049 16.9117 7.86951 16.9117 7.63469 17.0039L1.36531 19.4642C0.70934 19.7216 0 19.238 0 18.5333V1Z" fill="#8A7DCA"/>
<path d="M0.75 1C0.75 0.861929 0.861929 0.75 1 0.75H15C15.1381 0.75 15.25 0.861929 15.25 1V18.5333C15.25 18.7095 15.0727 18.8304 14.9087 18.766L8.63929 16.3057C8.22835 16.1445 7.77165 16.1445 7.3607 16.3057L1.09133 18.766C0.927334 18.8304 0.75 18.7095 0.75 18.5333V1Z" stroke="black" stroke-opacity="0.05" stroke-width="1.5"/>
</svg>
